<?xml version="1.0" encoding="utf-8"?>
<!-- Generator: Adobe Illustrator 25.0.0, SVG Export Plug-In . SVG Version: 6.00 Build 0)  -->
<svg version="1.1" id="图层_1" xmlns="http://www.w3.org/2000/svg" xmlns:xlink="http://www.w3.org/1999/xlink" x="0px"
	 y="0px"
	 viewBox="0 0 1264.5 501.4" style="enable-background:new 0 0 1264.5 501.4;" xml:space="preserve">
<style type="text/css">
	.st0{fill:red;stroke:#000000;stroke-width:17;stroke-linecap:round;stroke-linejoin:round;}
	.st1{fill:blue;stroke:#11A278;stroke-width:16;stroke-miterlimit:10;}
</style>
	<g id="图层_2_1_">
	<g id="图层_3">
		<path class="st0" d="M701.7,317.2c-5.7-7.4-5.8-8-7.7-11.9c-8.7-18.1-7.8-57-9.7-76.5c-0.8-7.8,0-15.7-2.2-23.4
			c-3.7-13-17.2-17.7-27.6-9.5c-9.2,7.2-13.5,16.3-14.6,28.2c-1.6,17.7-0.6,58.3,1.7,75.6c1.6,12.1-1,23.9,0.1,35.9
			c1.2,13.5-1.2,27.3,2.4,40.8c6.1,23,22,35.6,43.9,41.4c26.8,7.1,54.2,7.4,81.8,7.7c24.7,0.3,93.5,7,103.1,8.1
			c26.6,3.1,53.2,6.6,79.8,9.8c2.4,0.3,278.9,44.2,311.8,49.5V321.5c-18.1,0.3-434.3-0.4-462.7-2.7c-13.5-1.1-21.8-7.7-25.7-19.4
			c-14-41.9-28.8-83.6-36.4-127.2c-3.1-18-4.3-36.2-3.7-54.4c0.5-17.8-0.1-71-0.7-88.8c-0.4-10.4-10.2-20.3-19.9-20.5
			c-13.2-0.3-23.3,6.7-26.4,18.6c-0.5,1.9-0.9,3.8-1.3,5.7"/>
		<path class="st0" d="M661.8,190.5c-0.5-1.6-1.8-3.4-1.5-4.9c6-35-3-82.6,1-117.7c1.3-11.7,5.2-22,15.4-29.1
			c11.7-8.1,25-2.9,28.2,11.5c1.1,4.5,1.5,9.1,1.1,13.6c-4.1,36.8-0.1,108.5,8.1,144.4c0.8,2.9,1.4,5.9,1.8,8.9"/>
		<path class="st0" d="M570.2,317.2c5.7-7.4,5.8-8,7.7-11.9c8.7-18.1,7.8-57,9.7-76.5c0.8-7.8,0-15.7,2.2-23.4
			c3.7-13,17.2-17.7,27.6-9.5c9.2,7.2,13.5,16.3,14.6,28.2c1.6,17.7,0.6,58.3-1.7,75.6c-1.6,12.1,1,23.9-0.1,35.9
			c-1.2,13.5,1.2,27.3-2.4,40.8c-6.1,23-22,35.6-43.9,41.4c-26.8,7.1-54.2,7.4-81.9,7.7c-24.7,0.3-93.5,7-103.1,8.1
			c-26.6,3.1-53.2,6.6-79.8,9.8c-2.4,0.3-229.2,27.9-316.6,49.5l0-171.8c18.8,0.3,439.2,0.1,467.6-2.2c13.5-1.1,21.8-7.7,25.7-19.4
			c14-41.9,28.8-83.6,36.4-127.2c3.1-18,4.3-36.2,3.7-54.4c-0.5-17.8,0.1-71,0.7-88.8c0.4-10.4,10.2-20.3,19.9-20.5
			c13.2-0.3,23.3,6.7,26.4,18.6c0.5,1.9,0.9,3.8,1.3,5.7"/>
		<path class="st0" d="M610.2,190.5c0.5-1.6,1.8-3.4,1.5-4.9c-6-35,3-82.6-1-117.7c-1.3-11.7-5.2-22-15.4-29.1
			c-11.7-8.1-25-2.9-28.3,11.5c-1.1,4.5-1.4,9.1-1,13.6c4.1,36.8,0.1,108.5-8.1,144.4c-0.8,2.9-1.4,5.9-1.8,8.9"/>
		<path class="st1" d="M364.4,139.6l-0.4-2.7c-8.3-56,30.7-105.4,86.7-113.7l1.1-0.2"/>
		<path class="st1" d="M438.5,134.3L438.5,134.3c-18.1-28.9-9.5-67,19.4-85.1c0,0,0,0,0,0l0.6-0.3"/>
		<path class="st1" d="M833.5,209L833.5,209c18.4,18,18.7,47.5,0.8,65.9l-0.3,0.4"/>
		<path class="st1" d="M888.3,190.3L888.3,190.3c20.3,37.6,6.2,84.5-31.4,104.8l-0.7,0.4"/>
	</g>
</g>
</svg>
